<svg xmlns="http://www.w3.org/2000/svg" xmlns:xlink="http://www.w3.org/1999/xlink" width="43" height="45" viewBox="0 0 43 45">
  <defs>
    <filter id="Polygon_1" x="0" y="0" width="43" height="45" filterUnits="userSpaceOnUse">
      <feOffset dy="3" input="SourceAlpha"/>
      <feGaussianBlur stdDeviation="3" result="blur"/>
      <feFlood flood-opacity="0.161"/>
      <feComposite operator="in" in2="blur"/>
      <feComposite in="SourceGraphic"/>
    </filter>
  </defs>
  <g transform="matrix(1, 0, 0, 1, 0, 0)" filter="url(#Polygon_1)">
    <path id="Polygon_1-2" data-name="Polygon 1" d="M11.609,5.5a2,2,0,0,1,3.783,0l2.725,7.929a2,2,0,0,0,.314.58l5.327,6.83a2,2,0,0,1-1.941,3.2l-7.953-1.473a2,2,0,0,0-.728,0L5.183,24.04a2,2,0,0,1-1.941-3.2l5.327-6.83a2,2,0,0,0,.314-.58Z" transform="translate(9 33) rotate(-90)" fill="#ffde3a"/>
  </g>
</svg>
